# xmcd
#
# Track frame offsets: 
#        150
#        2388
#        15448
#        35663
#        49312
#        63220
#        81388
#        103653
#        116923
#        135538
#        169601
#
# Disc length: 2673 seconds
#
# Revision: 0
# Processed by: cddbd v1.5.2PL0 Copyright (c) Steve Scherf et al.
# Submitted via: ExactAudioCopy v0.95b4
#
DISCID=870a6f0b
DTITLE=Blues the Ville - Blues the Ville
DYEAR=2007
DGENRE=Blues
TTITLE0=Da Vila para o Blues (Intro)
TTITLE1=Ronelsong's
TTITLE2=Help Me Gypsy Woman
TTITLE3=Blues da Mama
TTITLE4=Bigode na gaita
TTITLE5=On the Blues Road
TTITLE6=Slow for a Big Friend
TTITLE7=Apoteose do Blues
TTITLE8=Stay with Me
TTITLE9=Mellow Down Easy
TTITLE10=Faixa Multimidia
EXTD=
EXTT0=
EXTT1=
EXTT2=
EXTT3=
EXTT4=
EXTT5=
EXTT6=
EXTT7=
EXTT8=
EXTT9=
EXTT10=
PLAYORDER=
